# xmcd
#
# Track frame offsets: 
#        150
#        6785
#        28663
#        44622
#        71475
#        94750
#        115760
#        136403
#        162360
#        188186
#        207811
#        232156
#        251548
#        268103
#
# Disc length: 3637 seconds
#
# Revision: 0
# Processed by: cddbd v1.5.2PL0 Copyright (c) Steve Scherf et al.
# Submitted via: ExactAudioCopy v1.0b3
#
DISCID=c50e330e
DTITLE=Various Artist - Hoi Hue Co Thuong Khong
DYEAR=1988
DGENRE=
TTITLE0=Minh Van - Loi gioi thieu
TTITLE1=Tuan Vu - Troi Hue vao thu chua em
TTITLE2=Thanh Tuyen - Hue sau
TTITLE3=Thien Trang - Phuong hong phuong tim
TTITLE4=Nhu Mai - Hue dem va tho
TTITLE5=ha Thanh - Thuong ai may nhip Trang Tien
TTITLE6=Huong Lan - Mua dong xu Hue
TTITLE7=Ha Thanh - Hoi Hue co thuong khong
TTITLE8=Phuong Dung - Thuong ve co do
TTITLE9=Nhu Mai - Nhung ngay mua ha tro ve
TTITLE10=Thanh Thuy - Ve mien Trung
TTITLE11=Bich Ha - Ton Nu con buon
TTITLE12=Thien Trang - Yeu dau phuong xa
TTITLE13=Minh Van - Loi ket
EXTD=
EXTT0=
EXTT1=
EXTT2=
EXTT3=
EXTT4=
EXTT5=
EXTT6=
EXTT7=
EXTT8=
EXTT9=
EXTT10=
EXTT11=
EXTT12=
EXTT13=
PLAYORDER=
